<svg width="362" height="208" viewBox="0 0 362 208" fill="none" xmlns="http://www.w3.org/2000/svg">
<path d="M355.597 137.701L361.497 128.201L358.597 126.401C357.697 125.901 357.297 124.901 357.397 123.901C357.397 123.301 357.497 122.801 357.497 122.201C357.497 121.201 357.997 120.301 358.897 119.801L361.897 118.201L356.597 108.401L353.597 110.001C352.697 110.501 351.597 110.401 350.797 109.801C350.297 109.501 349.897 109.201 349.397 108.901C348.497 108.401 347.997 107.501 347.997 106.501L348.097 103.101L336.897 102.801L336.797 106.201C336.797 107.201 336.197 108.101 335.197 108.501C334.997 108.601 334.697 108.701 334.497 108.901C334.297 109.001 333.997 109.201 333.797 109.301C332.897 109.801 331.897 109.801 330.997 109.301L328.097 107.501L322.197 117.001L325.097 118.801C325.997 119.301 326.397 120.301 326.297 121.301C326.297 121.901 326.197 122.401 326.197 123.001C326.197 124.001 325.697 124.901 324.797 125.401L321.797 127.001L327.097 136.801L330.097 135.201C330.997 134.701 331.997 134.801 332.897 135.401C333.397 135.701 333.797 136.001 334.297 136.301C335.197 136.801 335.697 137.701 335.697 138.701L335.597 142.101L346.797 142.401L346.897 139.001C346.897 138.001 347.497 137.101 348.497 136.701C348.697 136.601 348.997 136.501 349.197 136.301C349.397 136.201 349.697 136.001 349.897 135.901C350.797 135.401 351.797 135.301 352.697 135.901L355.597 137.701ZM346.197 130.601C341.697 133.001 336.197 131.301 333.797 126.901C331.397 122.401 333.097 116.901 337.497 114.501C341.997 112.101 347.497 113.801 349.897 118.201C352.297 122.701 350.597 128.201 346.197 130.601Z" fill="#F5F5F5"/>
<path d="M44.8 192.9L50.7 183.4L47.8 181.6C46.9 181.1 46.5 180.1 46.6 179.1C46.6 178.5 46.7 178 46.7 177.4C46.7 176.4 47.2 175.5 48.1 175L51.1 173.4L45.8 163.6L42.8 165.2C41.9 165.7 40.8 165.6 40 165C39.5 164.7 39.1 164.4 38.6 164.1C37.7 163.6 37.2 162.7 37.2 161.7L37.3 158.3L26.1 158L26 161.4C26 162.4 25.4 163.3 24.4 163.7C24.2 163.8 23.9 163.9 23.7 164.1C23.5 164.2 23.2 164.4 23 164.5C22.1 165 21.1 165 20.2 164.5L17.3 162.7L11.4 172.2L14.3 174C15.2 174.5 15.6 175.5 15.5 176.5C15.5 177.1 15.4 177.6 15.4 178.2C15.4 179.2 14.9 180.1 14 180.6L11 182.2L16.3 192L19.3 190.4C20.2 189.9 21.2 190 22.1 190.6C22.6 190.9 23 191.2 23.5 191.5C24.4 192 24.9 192.9 24.9 193.9L24.8 197.3L36 197.6L36.1 194.2C36.1 193.2 36.7 192.3 37.7 191.9C37.9 191.8 38.2 191.7 38.4 191.5C38.6 191.4 38.9 191.2 39.1 191.1C40 190.6 41 190.5 41.9 191.1L44.8 192.9ZM35.4 185.9C30.9 188.3 25.4 186.6 23 182.2C20.6 177.7 22.3 172.2 26.7 169.8C31.2 167.4 36.7 169.1 39.1 173.5C41.5 177.9 39.9 183.5 35.4 185.9Z" fill="#F5F5F5"/>
<path d="M148.296 63.4L144.396 56.6L142.296 57.8C141.696 58.2 140.896 58.1 140.296 57.7C139.996 57.5 139.596 57.3 139.296 57.1C138.696 56.8 138.296 56.1 138.296 55.4V53H130.496V55.4C130.496 56.1 130.096 56.7 129.496 57.1C129.196 57.3 128.796 57.5 128.496 57.7C127.896 58.1 127.196 58.1 126.496 57.8L124.396 56.6L120.496 63.4L122.596 64.6C123.196 65 123.496 65.6 123.496 66.3C123.496 66.5 123.496 66.7 123.496 66.9C123.496 67.1 123.496 67.3 123.496 67.5C123.496 68.2 123.196 68.9 122.596 69.2L120.496 70.4L124.396 77.2L126.496 76C127.096 75.6 127.896 75.7 128.496 76.1C128.796 76.3 129.196 76.5 129.496 76.7C130.096 77 130.496 77.7 130.496 78.4V80.8H138.296V78.4C138.296 77.7 138.696 77.1 139.296 76.7C139.596 76.5 139.996 76.3 140.296 76.1C140.896 75.7 141.596 75.7 142.296 76L144.396 77.2L148.296 70.4L146.196 69.2C145.596 68.8 145.296 68.2 145.296 67.5C145.296 67.3 145.296 67.1 145.296 66.9C145.296 66.7 145.296 66.5 145.296 66.3C145.296 65.6 145.596 64.9 146.196 64.6L148.296 63.4ZM140.796 66.9C140.796 70.4 137.896 73.3 134.396 73.3C130.896 73.3 127.996 70.4 127.996 66.9C127.996 63.4 130.896 60.5 134.396 60.5C137.896 60.5 140.796 63.4 140.796 66.9Z" fill="#F5F5F5"/>
<path d="M90.0008 184.401L83.8008 160.001L34.8008 172.501L28.3008 147.001L67.5008 57.7008L86.9008 52.8008L105.801 127.201L121.501 123.201L128.001 148.901L112.301 152.901L118.501 177.301L90.0008 184.401ZM56.4008 139.601L80.7008 133.401L72.7008 101.801L56.4008 139.601Z" fill="#1162FF"/>
<path d="M230.402 102.801C230.402 110.901 229.202 118.301 226.702 125.201C224.202 132.001 220.902 137.901 216.602 142.901C212.302 147.901 207.202 151.701 201.402 154.501C195.602 157.301 189.202 158.601 182.402 158.601C175.502 158.601 169.202 157.201 163.302 154.501C157.402 151.701 152.302 147.901 148.002 142.901C143.702 137.901 140.402 132.001 138.002 125.201C135.602 118.401 134.402 110.901 134.402 102.801C134.402 94.7008 135.602 87.3008 138.002 80.4008C140.402 73.6008 143.702 67.7008 148.002 62.7008C152.302 57.7008 157.402 53.8008 163.302 51.0008C169.202 48.2008 175.602 46.8008 182.402 46.8008C189.302 46.8008 195.602 48.2008 201.402 51.0008C207.202 53.8008 212.302 57.7008 216.602 62.7008C220.902 67.7008 224.302 73.6008 226.702 80.4008C229.202 87.3008 230.402 94.7008 230.402 102.801ZM200.802 102.801C200.802 94.2008 199.102 87.3008 195.602 81.9008C192.202 76.6008 187.802 73.9008 182.402 73.9008C176.802 73.9008 172.202 76.6008 168.902 81.9008C165.502 87.2008 163.802 94.2008 163.802 102.801C163.802 111.401 165.502 118.301 168.902 123.601C172.302 128.901 176.802 131.501 182.402 131.501C187.802 131.501 192.202 128.901 195.602 123.601C199.102 118.301 200.802 111.401 200.802 102.801Z" fill="#1162FF"/>
<path d="M283.302 179.702L287.302 154.802L237.402 146.702L241.602 120.702L313.102 54.4023L332.902 57.6023L320.602 133.302L336.602 135.902L332.402 162.102L316.402 159.502L312.402 184.402L283.302 179.702ZM270.302 125.202L295.002 129.202L300.202 97.0023L270.302 125.202Z" fill="#1162FF"/>
<path d="M65.3977 96.899C65.2977 92.799 64.3977 88.599 62.4977 84.999C61.4977 83.199 60.2977 81.599 58.5977 80.499C56.8977 79.399 54.8977 78.999 52.8977 79.299C50.9977 79.599 49.1977 80.799 47.9977 82.299C47.3977 83.099 46.8977 83.999 46.5977 84.899C46.2977 85.799 46.0977 86.799 46.1977 87.699C46.2977 88.099 46.3977 88.599 46.6977 88.799C46.7977 88.899 46.9977 88.999 47.1977 89.099C47.2977 89.099 47.3977 89.099 47.4977 89.199C47.5977 89.199 47.6977 89.199 47.6977 89.199C48.3977 89.099 48.9977 88.199 49.4977 87.299C50.3977 85.599 50.9977 83.599 51.3977 81.599C52.0977 77.599 52.0977 73.399 50.7977 69.599C50.1977 67.699 49.1977 65.899 47.8977 64.399C46.5977 62.899 44.8977 61.699 43.0977 60.899C42.1977 60.399 41.1977 60.199 40.2977 59.899C39.7977 59.699 39.2977 59.699 38.7977 59.599C38.2977 59.499 37.7977 59.399 37.2977 59.399C35.2977 59.199 33.1977 59.499 31.2977 59.999C27.2977 60.999 23.6977 63.199 20.5977 65.899C22.0977 64.399 23.6977 63.199 25.4977 62.099C27.2977 60.999 29.1977 60.099 31.1977 59.499C33.1977 58.999 35.2977 58.599 37.3977 58.699C37.8977 58.699 38.3977 58.799 38.9977 58.899C39.4977 58.999 40.0977 58.999 40.5977 59.199C41.5977 59.499 42.5977 59.699 43.5977 60.199C45.5977 60.899 47.3977 62.199 48.7977 63.799C50.1977 65.399 51.1977 67.299 51.8977 69.299C53.1977 73.299 53.2977 77.699 52.5977 81.799C52.1977 83.899 51.5977 85.899 50.5977 87.799C50.2977 88.299 49.9977 88.699 49.6977 89.199C49.2977 89.599 48.8977 89.999 48.0977 90.199C47.6977 90.199 47.3977 90.199 47.0977 90.099C46.7977 89.999 46.4977 89.799 46.2977 89.599C45.8977 89.099 45.6977 88.499 45.5977 87.999C45.3977 86.899 45.6977 85.799 45.9977 84.699C46.3977 83.699 46.8977 82.699 47.5977 81.899C48.8977 80.199 50.8977 78.899 52.9977 78.599C55.0977 78.299 57.3977 78.799 59.0977 79.999C60.8977 81.199 62.0977 82.999 63.0977 84.799C63.9977 86.699 64.5977 88.699 64.9977 90.699C65.2977 92.799 65.3977 94.799 65.3977 96.899Z" fill="#0F0F0F"/>
<path d="M286.201 149.1C282.201 148.2 277.901 148.1 274.001 149.2C272.001 149.7 270.101 150.6 268.701 151.9C267.301 153.3 266.301 155.2 266.201 157.1C266.001 159.1 266.801 161 268.001 162.6C268.601 163.4 269.401 164 270.201 164.6C271.001 165.1 271.901 165.5 272.901 165.6C273.401 165.6 273.801 165.6 274.101 165.4C274.301 165.3 274.401 165.2 274.501 165C274.601 164.9 274.601 164.8 274.601 164.7C274.601 164.6 274.601 164.5 274.701 164.5C274.701 163.8 274.001 162.9 273.301 162.3C271.801 161 270.001 160 268.201 159.2C264.501 157.6 260.401 156.6 256.401 156.9C254.401 157.1 252.401 157.5 250.601 158.5C248.801 159.4 247.301 160.7 246.101 162.4C245.401 163.2 245.001 164.1 244.401 164.9C244.101 165.3 244.001 165.8 243.801 166.3C243.601 166.8 243.401 167.2 243.301 167.7C242.701 169.6 242.501 171.7 242.501 173.7C242.601 177.8 243.801 181.8 245.701 185.5C244.601 183.7 243.801 181.8 243.201 179.8C242.601 177.8 242.101 175.8 242.001 173.7C241.901 171.6 242.101 169.5 242.701 167.5C242.801 167 243.101 166.5 243.201 166C243.401 165.5 243.501 165 243.801 164.6C244.301 163.7 244.801 162.7 245.501 161.9C246.701 160.2 248.301 158.7 250.201 157.7C252.101 156.7 254.201 156.2 256.301 156C260.501 155.6 264.801 156.6 268.601 158.2C270.501 159.1 272.401 160.1 274.001 161.6C274.401 162 274.801 162.4 275.101 162.8C275.401 163.3 275.701 163.8 275.701 164.5C275.601 164.9 275.501 165.2 275.301 165.4C275.101 165.7 274.901 165.9 274.601 166C274.001 166.3 273.401 166.4 272.801 166.3C271.701 166.2 270.601 165.7 269.701 165.1C268.801 164.5 268.001 163.8 267.301 162.9C266.001 161.2 265.201 159 265.401 156.8C265.601 154.6 266.701 152.6 268.201 151.2C269.801 149.8 271.801 148.9 273.801 148.5C275.801 148 277.901 147.9 280.001 148C282.101 148.2 284.201 148.5 286.201 149.1Z" fill="#0F0F0F"/>
<path d="M224.298 84.4009C223.598 82.0009 223.498 79.5009 223.898 77.0009C224.298 74.6009 225.098 72.1009 226.498 70.0009C227.798 67.9009 229.698 66.1009 231.898 64.9009C234.098 63.7009 236.698 63.2009 239.198 63.3009C241.698 63.4009 244.198 64.0009 246.498 65.1009C248.798 66.2009 250.898 67.6009 252.598 69.5009C253.398 70.5009 254.198 71.6009 254.198 73.1009C254.198 73.8009 253.898 74.6009 253.398 75.1009C252.898 75.6009 252.298 76.0009 251.598 76.2009C250.898 76.4009 250.098 76.4009 249.498 76.1009C248.798 75.9009 248.298 75.4009 247.798 75.0009C246.798 74.1009 246.198 73.0009 245.598 71.8009C244.498 69.5009 243.898 67.0009 243.598 64.6009C243.298 62.1009 243.398 59.6009 243.798 57.1009C244.598 52.2009 247.198 47.4009 251.198 44.4009C253.198 42.9009 255.498 41.7009 257.898 41.1009C260.298 40.4009 262.898 40.3009 265.298 40.6009C267.798 40.9009 270.198 41.6009 272.398 42.6009C274.698 43.6009 276.798 44.8009 278.798 46.3009C274.698 43.6009 270.098 41.6009 265.198 41.1009C262.798 40.9009 260.298 41.0009 257.998 41.7009C255.698 42.3009 253.498 43.5009 251.598 45.0009C249.698 46.5009 248.098 48.4009 246.998 50.5009C245.798 52.6009 245.098 54.9009 244.598 57.3009C243.798 62.0009 244.298 67.1009 246.298 71.5009C246.798 72.6009 247.498 73.6009 248.298 74.4009C249.098 75.2009 250.198 75.7009 251.198 75.4009C251.698 75.3009 252.198 74.9009 252.598 74.6009C252.998 74.2009 253.098 73.8009 253.098 73.3009C253.098 72.2009 252.498 71.2009 251.698 70.3009C250.198 68.5009 248.098 67.1009 245.998 66.1009C243.798 65.1009 241.398 64.5009 238.998 64.4009C236.598 64.3009 234.198 64.8009 231.998 65.8009C229.798 66.9009 227.998 68.6009 226.698 70.6009C224.198 74.4009 223.198 79.6009 224.298 84.4009Z" fill="#0F0F0F"/>
<path d="M284.401 43.3025C282.401 42.7025 280.301 43.8025 279.701 45.7025C279.101 47.7025 280.201 49.8025 282.101 50.4025C284.101 51.0025 286.101 49.9025 286.801 48.0025C287.401 46.0025 286.301 43.9025 284.401 43.3025ZM286.401 47.8025C285.901 49.5025 284.001 50.5025 282.301 49.9025C280.601 49.4025 279.601 47.5025 280.201 45.8025C280.701 44.1025 282.601 43.1025 284.301 43.7025C285.901 44.3025 286.901 46.1025 286.401 47.8025ZM284.401 43.3025C282.401 42.7025 280.301 43.8025 279.701 45.7025C279.101 47.7025 280.201 49.8025 282.101 50.4025C284.101 51.0025 286.101 49.9025 286.801 48.0025C287.401 46.0025 286.301 43.9025 284.401 43.3025ZM286.401 47.8025C285.901 49.5025 284.001 50.5025 282.301 49.9025C280.601 49.4025 279.601 47.5025 280.201 45.8025C280.701 44.1025 282.601 43.1025 284.301 43.7025C285.901 44.3025 286.901 46.1025 286.401 47.8025ZM284.401 43.3025C282.401 42.7025 280.301 43.8025 279.701 45.7025C279.101 47.7025 280.201 49.8025 282.101 50.4025C284.101 51.0025 286.101 49.9025 286.801 48.0025C287.401 46.0025 286.301 43.9025 284.401 43.3025ZM286.401 47.8025C285.901 49.5025 284.001 50.5025 282.301 49.9025C280.601 49.4025 279.601 47.5025 280.201 45.8025C280.701 44.1025 282.601 43.1025 284.301 43.7025C285.901 44.3025 286.901 46.1025 286.401 47.8025ZM285.601 39.4025C281.501 38.1025 277.101 40.4025 275.801 44.5025C274.501 48.6025 276.801 53.0025 280.901 54.3025C285.001 55.6025 289.401 53.3025 290.701 49.2025C292.001 45.1025 289.701 40.7025 285.601 39.4025ZM287.301 48.1025C286.601 50.4025 284.201 51.6025 281.901 50.9025C279.601 50.2025 278.401 47.8025 279.101 45.5025C279.801 43.2025 282.201 42.0025 284.501 42.7025C286.801 43.5025 288.101 45.9025 287.301 48.1025ZM286.801 48.0025C287.401 46.0025 286.301 44.0025 284.401 43.3025C282.401 42.7025 280.301 43.8025 279.701 45.7025C279.101 47.7025 280.201 49.8025 282.101 50.4025C284.101 51.0025 286.201 49.9025 286.801 48.0025ZM286.401 47.8025C285.901 49.5025 284.001 50.5025 282.301 49.9025C280.601 49.4025 279.601 47.5025 280.201 45.8025C280.701 44.1025 282.601 43.1025 284.301 43.7025C285.901 44.3025 286.901 46.1025 286.401 47.8025ZM284.401 43.3025C282.401 42.7025 280.301 43.8025 279.701 45.7025C279.101 47.7025 280.201 49.8025 282.101 50.4025C284.101 51.0025 286.101 49.9025 286.801 48.0025C287.401 46.0025 286.301 43.9025 284.401 43.3025ZM286.401 47.8025C285.901 49.5025 284.001 50.5025 282.301 49.9025C280.601 49.4025 279.601 47.5025 280.201 45.8025C280.701 44.1025 282.601 43.1025 284.301 43.7025C285.901 44.3025 286.901 46.1025 286.401 47.8025ZM284.401 43.3025C282.401 42.7025 280.301 43.8025 279.701 45.7025C279.101 47.7025 280.201 49.8025 282.101 50.4025C284.101 51.0025 286.101 49.9025 286.801 48.0025C287.401 46.0025 286.301 43.9025 284.401 43.3025ZM286.401 47.8025C285.901 49.5025 284.001 50.5025 282.301 49.9025C280.601 49.4025 279.601 47.5025 280.201 45.8025C280.701 44.1025 282.601 43.1025 284.301 43.7025C285.901 44.3025 286.901 46.1025 286.401 47.8025Z" fill="#0F0F0F"/>
<path d="M282.402 54.5016L279.502 53.6016L279.102 55.7016L281.602 56.5016L282.402 54.5016Z" fill="#0F0F0F"/>
<path d="M277.3 51.8016L275.9 49.1016L274 50.2016L275.3 52.6016L277.3 51.8016Z" fill="#0F0F0F"/>
<path d="M275.5 46.2023L276.4 43.3023L274.3 42.9023L273.5 45.4023L275.5 46.2023Z" fill="#0F0F0F"/>
<path d="M278.198 41.1008L280.898 39.7008L279.698 37.8008L277.398 39.1008L278.198 41.1008Z" fill="#0F0F0F"/>
<path d="M283.801 39.3008L286.601 40.2008L287.101 38.1008L284.601 37.3008L283.801 39.3008Z" fill="#0F0F0F"/>
<path d="M288.898 41.9992L290.298 44.6992L292.098 43.4992L290.898 41.1992L288.898 41.9992Z" fill="#0F0F0F"/>
<path d="M290.701 47.6016L289.801 50.4016L291.901 50.9016L292.701 48.4016L290.701 47.6016Z" fill="#0F0F0F"/>
<path d="M288.001 52.6992L285.301 54.0992L286.401 55.8992L288.801 54.6992L288.001 52.6992Z" fill="#0F0F0F"/>
<path d="M246.102 186.199C244.102 185.599 242.002 186.699 241.402 188.599C240.802 190.599 241.902 192.699 243.802 193.299C245.802 193.899 247.802 192.799 248.502 190.899C249.202 188.899 248.102 186.799 246.102 186.199ZM248.102 190.699C247.602 192.399 245.702 193.399 244.002 192.799C242.302 192.299 241.302 190.399 241.902 188.699C242.402 186.999 244.302 185.999 246.002 186.599C247.702 187.099 248.702 188.999 248.102 190.699ZM246.102 186.199C244.102 185.599 242.002 186.699 241.402 188.599C240.802 190.599 241.902 192.699 243.802 193.299C245.802 193.899 247.802 192.799 248.502 190.899C249.202 188.899 248.102 186.799 246.102 186.199ZM248.102 190.699C247.602 192.399 245.702 193.399 244.002 192.799C242.302 192.299 241.302 190.399 241.902 188.699C242.402 186.999 244.302 185.999 246.002 186.599C247.702 187.099 248.702 188.999 248.102 190.699ZM246.102 186.199C244.102 185.599 242.002 186.699 241.402 188.599C240.802 190.599 241.902 192.699 243.802 193.299C245.802 193.899 247.802 192.799 248.502 190.899C249.202 188.899 248.102 186.799 246.102 186.199ZM248.102 190.699C247.602 192.399 245.702 193.399 244.002 192.799C242.302 192.299 241.302 190.399 241.902 188.699C242.402 186.999 244.302 185.999 246.002 186.599C247.702 187.099 248.702 188.999 248.102 190.699ZM247.402 182.199C243.302 180.899 238.902 183.199 237.602 187.299C236.302 191.399 238.602 195.799 242.702 197.099C246.802 198.399 251.202 196.099 252.502 191.999C253.802 187.899 251.502 183.499 247.402 182.199ZM249.102 190.999C248.402 193.299 246.002 194.499 243.702 193.799C241.402 193.099 240.202 190.699 240.902 188.399C241.602 186.099 244.002 184.899 246.302 185.599C248.602 186.299 249.802 188.799 249.102 190.999ZM248.602 190.799C249.202 188.799 248.102 186.799 246.202 186.099C244.202 185.499 242.102 186.599 241.502 188.499C240.902 190.499 242.002 192.599 243.902 193.199C245.902 193.899 248.002 192.799 248.602 190.799ZM248.102 190.699C247.602 192.399 245.702 193.399 244.002 192.799C242.302 192.299 241.302 190.399 241.902 188.699C242.402 186.999 244.302 185.999 246.002 186.599C247.702 187.099 248.702 188.999 248.102 190.699ZM246.102 186.199C244.102 185.599 242.002 186.699 241.402 188.599C240.802 190.599 241.902 192.699 243.802 193.299C245.802 193.899 247.802 192.799 248.502 190.899C249.202 188.899 248.102 186.799 246.102 186.199ZM248.102 190.699C247.602 192.399 245.702 193.399 244.002 192.799C242.302 192.299 241.302 190.399 241.902 188.699C242.402 186.999 244.302 185.999 246.002 186.599C247.702 187.099 248.702 188.999 248.102 190.699ZM246.102 186.199C244.102 185.599 242.002 186.699 241.402 188.599C240.802 190.599 241.902 192.699 243.802 193.299C245.802 193.899 247.802 192.799 248.502 190.899C249.202 188.899 248.102 186.799 246.102 186.199ZM248.102 190.699C247.602 192.399 245.702 193.399 244.002 192.799C242.302 192.299 241.302 190.399 241.902 188.699C242.402 186.999 244.302 185.999 246.002 186.599C247.702 187.099 248.702 188.999 248.102 190.699Z" fill="#0F0F0F"/>
<path d="M244.201 197.298L241.301 196.398L240.801 198.498L243.401 199.298L244.201 197.298Z" fill="#0F0F0F"/>
<path d="M239.001 194.6L237.601 192L235.801 193.1L237.101 195.5L239.001 194.6Z" fill="#0F0F0F"/>
<path d="M237.301 189.099L238.201 186.199L236.101 185.699L235.301 188.299L237.301 189.099Z" fill="#0F0F0F"/>
<path d="M240.002 183.899L242.702 182.499L241.502 180.699L239.102 181.899L240.002 183.899Z" fill="#0F0F0F"/>
<path d="M245.5 182.199L248.4 183.099L248.9 180.999L246.3 180.199L245.5 182.199Z" fill="#0F0F0F"/>
<path d="M250.699 184.9L252.099 187.5L253.899 186.4L252.699 184L250.699 184.9Z" fill="#0F0F0F"/>
<path d="M252.502 190.398L251.602 193.298L253.602 193.798L254.402 191.198L252.502 190.398Z" fill="#0F0F0F"/>
<path d="M249.802 195.598L247.102 196.998L248.202 198.798L250.602 197.598L249.802 195.598Z" fill="#0F0F0F"/>
<path d="M27.3977 73.7007C28.8977 67.4007 25.0977 61.0007 18.6977 59.4007C12.3977 57.9007 5.99771 61.7007 4.39771 68.1007C2.99771 74.4007 6.89771 80.8007 13.1977 82.4007C19.4977 83.9007 25.8977 80.0007 27.3977 73.7007ZM21.2977 72.2007C20.5977 75.2007 17.5977 77.0007 14.5977 76.2007C11.5977 75.5007 9.79771 72.5007 10.5977 69.5007C11.2977 66.5007 14.2977 64.7007 17.2977 65.5007C20.1977 66.3007 22.0977 69.3007 21.2977 72.2007Z" fill="#0F0F0F"/>
<path d="M15.4977 82.3984L11.0977 81.3984L10.5977 84.4984L14.4977 85.4984L15.4977 82.3984Z" fill="#0F0F0F"/>
<path d="M7.5 78.9L5.1 75L2.5 76.9L4.6 80.4L7.5 78.9Z" fill="#0F0F0F"/>
<path d="M4.29922 70.7008L5.39922 66.3008L2.19922 65.8008L1.19922 69.7008L4.29922 70.7008Z" fill="#0F0F0F"/>
<path d="M7.79844 62.6992L11.6984 60.2992L9.79844 57.6992L6.39844 59.7992L7.79844 62.6992Z" fill="#0F0F0F"/>
<path d="M16 59.5L20.4 60.6L20.9 57.4L17 56.5L16 59.5Z" fill="#0F0F0F"/>
<path d="M24 63.1016L26.4 66.9016L29 65.0016L26.9 61.6016L24 63.1016Z" fill="#0F0F0F"/>
<path d="M27.1977 71.1992L26.0977 75.5992L29.2977 76.0992L30.2977 72.1992L27.1977 71.1992Z" fill="#0F0F0F"/>
<path d="M23.7008 79.1992L19.8008 81.5992L21.7008 84.1992L25.1008 82.0992L23.7008 79.1992Z" fill="#0F0F0F"/>
<path d="M12.2992 73.1L15.7992 75L19.1992 72.9L19.0992 68.9L15.5992 67L12.1992 69L12.2992 73.1ZM16.0992 69.7C16.7992 69.9 17.1992 70.6 16.9992 71.2C16.7992 71.9 16.0992 72.3 15.4992 72.1C14.7992 71.9 14.3992 71.2 14.5992 70.6C14.6992 70 15.3992 69.6 16.0992 69.7Z" fill="#0F0F0F"/>
</svg>
