<svg width="32" height="32" viewBox="0 0 32 32" fill="none" xmlns="http://www.w3.org/2000/svg">
<rect width="32" height="32" rx="1.75" fill="#253344"/>
<path fill-rule="evenodd" clip-rule="evenodd" d="M11.3606 26.0932C12.6763 26.6977 14.2142 27 15.9744 27C17.7346 27 19.2636 26.6977 20.5615 26.0932C21.8772 25.4709 22.9618 24.662 23.8152 23.6663C24.6686 22.6529 25.3087 21.5594 25.7354 20.386C26.1621 19.2125 26.3754 18.0835 26.3754 16.999V16.4122C26.3754 15.2032 26.1532 14.012 25.7087 12.8385C25.2642 11.6473 24.6064 10.5716 23.7352 9.61153L20.3215 12.2785C20.8549 12.8296 21.2549 13.4875 21.5216 14.252C21.8061 14.9987 21.9483 15.8255 21.9483 16.7323C21.9483 17.5857 21.815 18.3858 21.5483 19.1325C21.2816 19.8793 20.8816 20.5371 20.3482 21.106C19.8326 21.675 19.2014 22.1195 18.4546 22.4395C17.7257 22.7595 16.8989 22.9196 15.9744 22.9196C15.0498 22.9196 14.2231 22.7595 13.4941 22.4395C12.7652 22.1195 12.134 21.675 11.6006 21.106C11.085 20.5371 10.6938 19.8793 10.4271 19.1325C10.1604 18.3858 10.0271 17.5857 10.0271 16.7323C10.0271 15.8255 10.1604 14.9987 10.4271 14.252C10.6938 13.4875 11.085 12.8296 11.6006 12.2785C12.134 11.7095 12.7652 11.2739 13.4941 10.9717C14.2231 10.6694 15.0498 10.5183 15.9744 10.5183V6.43787C14.2675 6.43787 12.7652 6.73123 11.4672 7.31796C10.1693 7.8869 9.08478 8.65143 8.21358 9.61153C7.34238 10.5716 6.68454 11.6473 6.24005 12.8385C5.81334 14.012 5.59998 15.2032 5.59998 16.4122V16.999C5.59998 18.0835 5.80444 19.2125 6.21337 20.386C6.64008 21.5594 7.28015 22.6529 8.13357 23.6663C8.98699 24.662 10.0627 25.4709 11.3606 26.0932Z" fill="white"/>
<path d="M17.6664 5.00959C17.6664 5.00959 18.9628 4.85911 21.0001 5.75041C23.0373 6.6417 23.5929 7.60245 23.5929 7.60245L18.0447 12.8587C17.5412 13.3357 16.717 12.9212 16.7996 12.2326L17.6664 5.00959Z" fill="#1162FF"/>
</svg>
