<svg width="32" height="32" viewBox="0 0 32 32" fill="none" xmlns="http://www.w3.org/2000/svg">
<path fill-rule="evenodd" clip-rule="evenodd" d="M27.375 29C28.272 29 29 28.272 29 27.375V4.625C29 3.728 28.272 3 27.375 3H4.625C3.728 3 3 3.728 3 4.625V27.375C3 28.272 3.728 29 4.625 29H27.375ZM8.6875 23.3125V11.9375H11.9375V23.3125H8.6875ZM19.6554 11.9375C17.3878 11.9375 16.9978 12.7646 16.8125 13.5625V11.9375H13.5625V23.3125H16.8125V16.8125C16.8125 15.7587 17.3837 15.1875 18.4375 15.1875C19.4661 15.1875 20.0625 15.7465 20.0625 16.8125V23.3125H23.3125V17.625C23.3125 14.375 22.8892 11.9375 19.6554 11.9375ZM11.9375 9.5C11.9375 10.3975 11.21 11.125 10.3125 11.125C9.41504 11.125 8.6875 10.3975 8.6875 9.5C8.6875 8.60254 9.41504 7.875 10.3125 7.875C11.21 7.875 11.9375 8.60254 11.9375 9.5Z" fill="white"/>
</svg>
