<svg width="344" height="67" viewBox="0 0 344 67" fill="none" xmlns="http://www.w3.org/2000/svg">
<path d="M31.024 63.368C26.272 63.368 22.192 62.552 18.784 60.92C15.376 59.24 12.592 57.056 10.432 54.368C8.27199 51.632 6.66399 48.704 5.60799 45.584C4.59999 42.416 4.09599 39.344 4.09599 36.368V34.784C4.09599 31.52 4.62399 28.304 5.67999 25.136C6.73599 21.92 8.34399 19.016 10.504 16.424C12.712 13.832 15.472 11.768 18.784 10.232C22.144 8.64799 26.104 7.856 30.664 7.856C35.416 7.856 39.616 8.74399 43.264 10.52C46.912 12.296 49.816 14.768 51.976 17.936C54.184 21.056 55.48 24.728 55.864 28.952H43.984C43.648 26.84 42.88 25.04 41.68 23.552C40.48 22.064 38.92 20.912 37 20.096C35.128 19.28 33.016 18.872 30.664 18.872C28.312 18.872 26.224 19.28 24.4 20.096C22.576 20.912 21.04 22.064 19.792 23.552C18.592 25.04 17.656 26.816 16.984 28.88C16.36 30.896 16.048 33.152 16.048 35.648C16.048 38.096 16.36 40.352 16.984 42.416C17.656 44.432 18.616 46.208 19.864 47.744C21.16 49.232 22.744 50.384 24.616 51.2C26.488 51.968 28.624 52.352 31.024 52.352C34.672 52.352 37.744 51.464 40.24 49.688C42.784 47.912 44.32 45.464 44.848 42.344H56.656C56.224 46.184 54.928 49.712 52.768 52.928C50.656 56.096 47.752 58.64 44.056 60.56C40.408 62.432 36.064 63.368 31.024 63.368Z" fill="#253344"/>
<path d="M79.5659 63.368C76.1099 63.368 73.0379 62.84 70.3499 61.784C67.6619 60.68 65.3819 59.192 63.5099 57.32C61.6859 55.448 60.2939 53.312 59.3339 50.912C58.3739 48.464 57.8939 45.896 57.8939 43.208V41.552C57.8939 38.816 58.3739 36.224 59.3339 33.776C60.3419 31.28 61.7819 29.096 63.6539 27.224C65.5739 25.352 67.8779 23.888 70.5659 22.832C73.2539 21.728 76.2539 21.176 79.5659 21.176C82.9739 21.176 85.9979 21.728 88.6379 22.832C91.3259 23.888 93.6059 25.352 95.4779 27.224C97.3499 29.096 98.7899 31.28 99.7979 33.776C100.806 36.224 101.31 38.816 101.31 41.552V43.208C101.31 45.896 100.83 48.464 99.8699 50.912C98.9099 53.312 97.4939 55.448 95.6219 57.32C93.7979 59.192 91.5419 60.68 88.8539 61.784C86.1659 62.84 83.0699 63.368 79.5659 63.368ZM79.5659 53.648C81.8219 53.648 83.6939 53.168 85.1819 52.208C86.6699 51.248 87.7979 49.904 88.5659 48.176C89.3819 46.448 89.7899 44.528 89.7899 42.416C89.7899 40.16 89.3819 38.192 88.5659 36.512C87.7499 34.784 86.5739 33.416 85.0379 32.408C83.5499 31.4 81.7259 30.896 79.5659 30.896C77.4539 30.896 75.6299 31.4 74.0939 32.408C72.5579 33.416 71.3819 34.784 70.5659 36.512C69.7979 38.192 69.4139 40.16 69.4139 42.416C69.4139 44.528 69.7979 46.448 70.5659 48.176C71.3339 49.904 72.4859 51.248 74.0219 52.208C75.5579 53.168 77.4059 53.648 79.5659 53.648Z" fill="#253344"/>
<path d="M105.85 62V22.544H114.994V39.536H114.346C114.346 35.504 114.85 32.144 115.858 29.456C116.866 26.768 118.378 24.752 120.394 23.408C122.41 22.016 124.882 21.32 127.81 21.32H128.314C131.29 21.32 133.762 22.016 135.73 23.408C137.746 24.752 139.258 26.768 140.266 29.456C141.322 32.144 141.85 35.504 141.85 39.536H139.042C139.042 35.504 139.546 32.144 140.554 29.456C141.61 26.768 143.146 24.752 145.162 23.408C147.178 22.016 149.65 21.32 152.578 21.32H153.082C156.058 21.32 158.554 22.016 160.57 23.408C162.634 24.752 164.194 26.768 165.25 29.456C166.306 32.144 166.834 35.504 166.834 39.536V62H155.314V38.888C155.314 36.728 154.738 34.976 153.586 33.632C152.482 32.288 150.898 31.616 148.834 31.616C146.77 31.616 145.138 32.312 143.938 33.704C142.738 35.048 142.138 36.848 142.138 39.104V62H130.546V38.888C130.546 36.728 129.97 34.976 128.818 33.632C127.714 32.288 126.154 31.616 124.138 31.616C122.026 31.616 120.37 32.312 119.17 33.704C117.97 35.048 117.37 36.848 117.37 39.104V62H105.85Z" fill="#253344"/>
<path d="M191.226 63.368C187.866 63.368 184.89 62.792 182.298 61.64C179.754 60.488 177.618 58.952 175.89 57.032C174.21 55.064 172.914 52.88 172.002 50.48C171.138 48.032 170.706 45.536 170.706 42.992V41.552C170.706 38.912 171.138 36.392 172.002 33.992C172.914 31.544 174.21 29.36 175.89 27.44C177.57 25.52 179.658 24.008 182.154 22.904C184.698 21.752 187.578 21.176 190.794 21.176C195.018 21.176 198.57 22.136 201.45 24.056C204.378 25.928 206.61 28.4 208.146 31.472C209.682 34.496 210.45 37.808 210.45 41.408V45.296H175.53V38.744H203.466L199.722 41.768C199.722 39.416 199.386 37.4 198.714 35.72C198.042 34.04 197.034 32.768 195.69 31.904C194.394 30.992 192.762 30.536 190.794 30.536C188.778 30.536 187.074 30.992 185.682 31.904C184.29 32.816 183.234 34.16 182.514 35.936C181.794 37.664 181.434 39.8 181.434 42.344C181.434 44.696 181.77 46.76 182.442 48.536C183.114 50.264 184.17 51.608 185.61 52.568C187.05 53.528 188.922 54.008 191.226 54.008C193.338 54.008 195.066 53.6 196.41 52.784C197.754 51.968 198.666 50.96 199.146 49.76H209.73C209.154 52.4 208.026 54.752 206.346 56.816C204.666 58.88 202.554 60.488 200.01 61.64C197.466 62.792 194.538 63.368 191.226 63.368Z" fill="#253344"/>
<path d="M286.631 63.224C282.071 63.224 278.567 61.76 276.119 58.832C273.671 55.856 272.447 51.392 272.447 45.44V22.544H283.967V46.016C283.967 48.128 284.567 49.808 285.767 51.056C286.967 52.304 288.575 52.928 290.591 52.928C292.655 52.928 294.335 52.28 295.631 50.984C296.927 49.688 297.575 47.936 297.575 45.728V22.544H309.095V62H299.951V45.368H300.743C300.743 49.352 300.215 52.688 299.159 55.376C298.151 58.016 296.639 59.984 294.623 61.28C292.607 62.576 290.111 63.224 287.135 63.224H286.631Z" fill="#253344"/>
<path d="M334.145 62.504C330.161 62.504 326.945 62.024 324.497 61.064C322.049 60.056 320.249 58.4 319.097 56.096C317.993 53.744 317.441 50.576 317.441 46.592V11.888H328.169V47.024C328.169 48.896 328.649 50.336 329.609 51.344C330.617 52.304 332.033 52.784 333.857 52.784H339.689V62.504H334.145ZM311.465 30.968V22.544H339.689V30.968H311.465Z" fill="#253344"/>
<path fill-rule="evenodd" clip-rule="evenodd" d="M227.976 60.92C231.528 62.552 235.68 63.368 240.432 63.368C245.184 63.368 249.312 62.552 252.816 60.92C256.368 59.24 259.296 57.056 261.6 54.368C263.904 51.632 265.632 48.68 266.784 45.512C267.936 42.344 268.512 39.296 268.512 36.368V34.784C268.512 31.52 267.912 28.304 266.712 25.136C265.512 21.92 263.736 19.016 261.384 16.424L252.168 23.624C253.608 25.112 254.688 26.888 255.408 28.952C256.176 30.968 256.56 33.2 256.56 35.648C256.56 37.952 256.2 40.112 255.48 42.128C254.76 44.144 253.68 45.92 252.24 47.456C250.848 48.992 249.144 50.192 247.128 51.056C245.16 51.92 242.928 52.352 240.432 52.352C237.936 52.352 235.704 51.92 233.736 51.056C231.768 50.192 230.064 48.992 228.624 47.456C227.232 45.92 226.176 44.144 225.456 42.128C224.736 40.112 224.376 37.952 224.376 35.648C224.376 33.2 224.736 30.968 225.456 28.952C226.176 26.888 227.232 25.112 228.624 23.624C230.064 22.088 231.768 20.912 233.736 20.096C235.704 19.28 237.936 18.872 240.432 18.872V7.856C235.824 7.856 231.768 8.64799 228.264 10.232C224.76 11.768 221.832 13.832 219.48 16.424C217.128 19.016 215.352 21.92 214.152 25.136C213 28.304 212.424 31.52 212.424 34.784V36.368C212.424 39.296 212.976 42.344 214.08 45.512C215.232 48.68 216.96 51.632 219.264 54.368C221.568 57.056 224.472 59.24 227.976 60.92Z" fill="#253344"/>
<path d="M245 4C245 4 248.5 3.59375 254 6C259.5 8.40625 261 11 261 11L246.021 25.1904C244.662 26.4781 242.437 25.3592 242.66 23.5002L245 4Z" fill="#1162FF"/>
</svg>
