<svg width="256" height="256" viewBox="0 0 256 256" fill="none" xmlns="http://www.w3.org/2000/svg">
<rect width="256" height="256" rx="14" fill="#253344"/>
<path fill-rule="evenodd" clip-rule="evenodd" d="M90.8855 208.746C101.411 213.582 113.715 216 127.796 216C141.877 216 154.11 213.582 164.493 208.746C175.019 203.768 183.695 197.296 190.522 189.33C197.35 181.223 202.47 172.475 205.884 163.088C209.298 153.7 211.004 144.668 211.004 135.992V131.298C211.004 121.626 209.227 112.096 205.671 102.708C202.115 93.1783 196.852 84.573 189.882 76.8922L162.573 98.2277C166.84 102.637 170.04 107.9 172.174 114.016C174.45 119.99 175.588 126.604 175.588 133.858C175.588 140.685 174.521 147.086 172.387 153.06C170.254 159.034 167.053 164.297 162.786 168.848C158.661 173.4 153.612 176.956 147.638 179.516C141.806 182.076 135.192 183.357 127.796 183.357C120.4 183.357 113.786 182.076 107.954 179.516C102.122 176.956 97.0729 173.4 92.8058 168.848C88.6809 164.297 85.5517 159.034 83.4181 153.06C81.2846 147.086 80.2178 140.685 80.2178 133.858C80.2178 126.604 81.2846 119.99 83.4181 114.016C85.5517 107.9 88.6809 102.637 92.8058 98.2277C97.0729 93.6762 102.122 90.1914 107.954 87.7733C113.786 85.3553 120.4 84.1463 127.796 84.1463V51.5029C114.141 51.5029 102.122 53.8498 91.739 58.5437C81.3557 63.0952 72.6792 69.2114 65.7096 76.8922C58.74 84.573 53.4773 93.1783 49.9213 102.708C46.5077 112.096 44.8008 121.626 44.8008 131.298V135.992C44.8008 144.668 46.4365 153.7 49.708 163.088C53.1217 172.475 58.2422 181.223 65.0696 189.33C71.8969 197.296 80.5022 203.768 90.8855 208.746Z" fill="white"/>
<path d="M141.331 40.0767C141.331 40.0767 151.703 38.8729 168.001 46.0032C184.299 53.1336 188.743 60.8196 188.743 60.8196L144.357 102.87C140.33 106.685 133.736 103.37 134.397 97.8611L141.331 40.0767Z" fill="#1162FF"/>
</svg>
